PathFileType	4	(X/Y/Z)	/Users/itak/Documents/Research/Walk-IL/dataset/trc/00517_00183.trc
DataRate	CameraRate	NumFrames	NumMarkers	Units	OrigDataRate	OrigDataStartFrame	OrigNumFrames
100.000000	100.000000	4	54	mm	100.000000	245	392
Frame#	Time	RPSI			LPSI			L3			STRN			T10			C7			CLAV			RBAK			LBAK			LSHO			LUPA			LAEL			LAOL			LWTS			LWPS			LFRA			LIFD			LHPS			LHTS			RSHO			RUPA			RAEL			RAOL			RWTS			RWPS			RFRA			RIFD			RHTS			RHPS			RBHD			LFHD			RFHD			LBHD			RHIP			RASI			LASI			LKNE			LTHI			LANK			LTIP			LTOE			LMT1			LMT5			LHEE			RKNE			RTHI			RANK			RTIP			RTOE			RMT1			RMT5			RHEE			LHIP			*53			
		X1	Y1	Z1	X2	Y2	Z2	X3	Y3	Z3	X4	Y4	Z4	X5	Y5	Z5	X6	Y6	Z6	X7	Y7	Z7	X8	Y8	Z8	X9	Y9	Z9	X10	Y10	Z10	X11	Y11	Z11	X12	Y12	Z12	X13	Y13	Z13	X14	Y14	Z14	X15	Y15	Z15	X16	Y16	Z16	X17	Y17	Z17	X18	Y18	Z18	X19	Y19	Z19	X20	Y20	Z20	X21	Y21	Z21	X22	Y22	Z22	X23	Y23	Z23	X24	Y24	Z24	X25	Y25	Z25	X26	Y26	Z26	X27	Y27	Z27	X28	Y28	Z28	X29	Y29	Z29	X30	Y30	Z30	X31	Y31	Z31	X32	Y32	Z32	X33	Y33	Z33	X34	Y34	Z34	X35	Y35	Z35	X36	Y36	Z36	X37	Y37	Z37	X38	Y38	Z38	X39	Y39	Z39	X40	Y40	Z40	X41	Y41	Z41	X42	Y42	Z42	X43	Y43	Z43	X44	Y44	Z44	X45	Y45	Z45	X46	Y46	Z46	X47	Y47	Z47	X48	Y48	Z48	X49	Y49	Z49	X50	Y50	Z50	X51	Y51	Z51	X52	Y52	Z52	X53	Y53	Z53	X54	Y54	Z54	

246	2.45	1151.968505859375	944.4083251953125	208.7522125244141	1271.787475585938	947.011962890625	179.3355560302734	1208.626220703125	1012.172485351562	189.1533050537109	1284.06884765625	1189.9921875	382.0486450195312	1196.446044921875	1115.007568359375	173.2287139892578	1205.782348632812	1347.1298828125	200.8133544921875	1268.122436523438	1282.430908203125	343.6717529296875	1109.917236328125	1223.389404296875	195.2225799560547	1276.584716796875	1289.919555664062	146.8080291748047	1379.462646484375	1344.818115234375	199.9733581542969	1436.227783203125	1220.903198242188	169.7876434326172	1479.55517578125	1014.415222167969	172.2528228759766	1384.79931640625	997.2386474609375	145.2532348632812	1506.243041992188	831.7780151367188	274.1770935058594	1500.954223632812	792.8982543945312	188.1942596435547	1496.71044921875	929.8658447265625	189.4509887695312	1525.454345703125	676.8991088867188	284.2101440429688	1519.9609375	743.1655883789062	211.7373657226562	1538.786987304688	759.2223510742188	272.3264465332031	1090.154174804688	1345.404418945312	309.188232421875	1032.936767578125	1278.60009765625	314.9648742675781	983.7347412109375	1014.490356445312	318.0337524414062	1015.069458007812	998.1025390625	262.0604248046875	1015.166137695312	802.0187377929688	399.5094299316406	964.9058227539062	785.4664306640625	326.2334899902344	975.2818603515625	960.2611083984375	319.7643127441406	1004.957885742188	642.8017578125	388.5297546386719	988.4712524414062	709.8579711914062	407.2029113769531	962.2235717773438	715.0305786132812	341.5742492675781	1130.223266601562	1489.56640625	252.1968231201172	1297.647216796875	1585.562866210938	308.5841674804688	1178.653076171875	1571.167724609375	352.3426818847656	1276.374267578125	1500.645385742188	184.8746948242188	1056.422119140625	847.8838500976562	346.3573303222656	1147.120971679688	899.4103393554688	421.3396301269531	1381.262084960938	918.2076416015625	358.1227111816406	1417.903198242188	472.3351135253906	363.0539245605469	1432.042846679688	625.9337158203125	330.6331176757812	1439.789306640625	33.42949295043945	276.9994812011719	1433.031860351562	320.3876953125	345.3190002441406	1388.063842773438	25.29044151306152	479.1242065429688	1352.786376953125	32.5223388671875	401.6717529296875	1455.820434570312	26.18989753723145	386.3865356445312	1376.698852539062	28.23590660095215	233.1820983886719	1119.656127929688	470.71435546875	411.3997192382812	1078.176147460938	724.8744506835938	392.3632202148438	974.2101440429688	179.1342620849609	136.30419921875	1089.893676757812	354.8218994140625	356.8240966796875	1046.025634765625	40.95919036865234	261.1338195800781	1070.453369140625	77.51905822753906	200.9881591796875	976.3576049804688	100.6889419555664	215.8483276367188	1007.4814453125	204.1987915039062	79.62657165527344	1427.844970703125	880.6658935546875	253.4133605957031	nan	nan	nan	
247	2.46	1156.452026367188	945.9764404296875	210.3753204345703	1276.462036132812	948.4457397460938	182.1594543457031	1214.108276367188	1014.02392578125	191.2114105224609	1287.158447265625	1191.294189453125	386.1239013671875	1202.6689453125	1116.91064453125	175.961669921875	1211.645263671875	1348.990478515625	204.2438354492188	1271.739501953125	1283.8876953125	347.8980712890625	1115.941284179688	1225.278686523438	196.5945739746094	1283.361328125	1292.038940429688	151.2472381591797	1385.243530273438	1346.992309570312	206.2713470458984	1442.931396484375	1223.356567382812	176.7812957763672	1487.05029296875	1017.064025878906	179.9158477783203	1392.7978515625	999.440185546875	151.3322448730469	1513.32080078125	835.5606079101562	283.2384033203125	1509.19287109375	795.7042846679688	197.6523590087891	1504.264282226562	932.7735595703125	197.7553253173828	1534.36474609375	681.16455078125	295.2553100585938	1528.656616210938	746.4818725585938	221.9132995605469	1546.791015625	763.5006713867188	282.4178771972656	1094.338256835938	1346.843017578125	310.833251953125	1037.0322265625	1280.106689453125	315.3501281738281	987.6974487304688	1015.946228027344	317.0693054199219	1019.555969238281	999.6907348632812	261.4157409667969	1019.900085449219	803.6238403320312	398.7494506835938	968.6873168945312	786.5662231445312	326.2821655273438	979.2809448242188	961.67919921875	318.5331115722656	1011.397216796875	644.466796875	387.9826965332031	994.4274291992188	711.1404418945312	406.8231811523438	967.0596313476562	716.0153198242188	341.5937805175781	1135.25146484375	1491.462280273438	255.0543212890625	1302.527954101562	1586.938842773438	312.6710205078125	1183.03076171875	1573.182861328125	355.3813781738281	1281.940551757812	1501.716796875	188.9522094726562	1059.891235351562	849.6401977539062	347.4524536132812	1150.24267578125	901.1417236328125	422.8598327636719	1384.989868164062	919.359375	361.5802917480469	1419.839233398438	472.3995361328125	362.9842224121094	1434.853393554688	626.357421875	332.1868591308594	1439.724975585938	33.45611953735352	277.0034484863281	1434.2080078125	320.2452697753906	345.0982055664062	1388.09130859375	25.2900447845459	479.1133422851562	1352.738159179688	32.47534942626953	401.6663513183594	1455.7265625	26.26621627807617	386.3578491210938	1376.704223632812	28.22023391723633	233.1002655029297	1125.120971679688	473.3434448242188	416.5425720214844	1081.221313476562	726.4223022460938	393.2892456054688	987.7686767578125	171.8875732421875	146.0973663330078	1097.391723632812	356.0328979492188	364.1249084472656	1065.303466796875	40.38134384155273	273.9067687988281	1088.299194335938	76.64175415039062	213.2038726806641	993.0784912109375	94.93697357177734	226.9358825683594	1020.567138671875	197.6021728515625	89.52710723876953	1431.798583984375	881.6080322265625	256.9749755859375	nan	nan	nan	
248	2.47	1160.75634765625	947.3541259765625	211.9120330810547	1280.920776367188	949.6649780273438	184.849853515625	1219.4306640625	1015.684509277344	193.2793731689453	1290.133178710938	1192.366333007812	390.0495910644531	1208.685791015625	1118.656616210938	178.6032257080078	1217.331298828125	1350.68994140625	207.6451873779297	1275.24072265625	1285.125244140625	352.021240234375	1121.804077148438	1227.015502929688	197.9747009277344	1289.938232421875	1294.023681640625	155.5999298095703	1390.816528320312	1348.96240234375	212.4726715087891	1449.427734375	1225.585693359375	183.7446899414062	1494.314819335938	1019.492370605469	187.5780944824219	1400.618286132812	1001.445922851562	157.3980712890625	1520.130859375	839.1410522460938	292.3116455078125	1517.113891601562	798.3140258789062	207.1488952636719	1511.561767578125	935.4868774414062	206.0644378662109	1542.724731445312	685.213623046875	306.3297119140625	1536.93310546875	749.5830078125	232.1388702392578	1554.39990234375	767.525634765625	292.5504455566406	1098.409057617188	1348.111450195312	312.487060546875	1041.025756835938	1281.42626953125	315.775390625	991.5864868164062	1017.214782714844	316.1294555664062	1023.929870605469	1001.109252929688	260.7608032226562	1024.572021484375	805.1326293945312	398.0814514160156	972.4205322265625	787.5108642578125	326.4146118164062	983.2225952148438	962.8895263671875	317.3382568359375	1017.510986328125	646.0840454101562	387.7477722167969	1000.131103515625	712.406005859375	406.6535339355469	971.7333984375	716.9042358398438	341.7915954589844	1140.115600585938	1493.117065429688	257.8870239257812	1307.20263671875	1588.151611328125	316.7035827636719	1187.226196289062	1575.030639648438	358.4164123535156	1287.310546875	1502.62060546875	192.9871520996094	1063.242553710938	851.181640625	348.5501403808594	1153.301513671875	902.669677734375	424.37060546875	1388.575317382812	920.3184204101562	364.8372497558594	1421.784423828125	472.4101867675781	363.0482482910156	1437.624389648438	626.6870727539062	333.7345886230469	1439.646362304688	33.50328063964844	277.0099792480469	1435.362182617188	320.0491638183594	344.9798278808594	1388.108154296875	25.28369903564453	479.1133728027344	1352.696899414062	32.42285537719727	401.6560363769531	1455.628173828125	26.34267807006836	386.3248291015625	1376.699829101562	28.20495223999023	233.0104827880859	1130.197265625	475.727294921875	421.4997863769531	1084.02490234375	727.634033203125	394.0751342773438	1001.324279785156	164.3665161132812	155.9575653076172	1104.77099609375	356.6919250488281	371.2615966796875	1084.229248046875	39.82815933227539	286.8384704589844	1105.87890625	75.68463897705078	225.5174560546875	1009.702575683594	89.12765502929688	238.1800384521484	1033.64306640625	190.6399078369141	99.39726257324219	1435.573608398438	882.4031372070312	260.349365234375	nan	nan	nan	
249	2.48	1164.916381835938	948.5350341796875	213.3516235351562	1285.201904296875	950.6636352539062	187.4004211425781	1224.608276367188	1017.150817871094	195.3781127929688	1293.0166015625	1193.214721679688	393.8338012695312	1214.507568359375	1120.253173828125	181.1274719238281	1222.83544921875	1352.228637695312	211.0140228271484	1278.636352539062	1286.141357421875	356.0360107421875	1127.4892578125	1228.603637695312	199.3765563964844	1296.293823242188	1295.862548828125	159.8567352294922	1396.180541992188	1350.711791992188	218.5458831787109	1455.702270507812	1227.564453125	190.6525726318359	1501.355590820312	1021.677795410156	195.2455139160156	1408.273071289062	1003.219116210938	163.4480285644531	1526.6591796875	842.4902954101562	301.4105834960938	1524.741943359375	800.719482421875	216.6847991943359	1518.611328125	937.9769897460938	214.3921356201172	1550.524780273438	689.0065307617188	317.4089965820312	1544.8115234375	752.4550170898438	242.4102783203125	1561.598510742188	771.263427734375	302.7326965332031	1102.364501953125	1349.209716796875	314.1639709472656	1044.9208984375	1282.552001953125	316.2666320800781	995.4117431640625	1018.288269042969	315.2472839355469	1028.19921875	1002.349365234375	260.1173095703125	1029.1328125	806.522216796875	397.5104675292969	976.1323852539062	788.3084106445312	326.5755004882812	987.1156005859375	963.8923950195312	316.2210693359375	1023.2333984375	647.6063842773438	387.7670593261719	1005.50244140625	713.6314697265625	406.65234375	976.2349243164062	717.697265625	342.1051940917969	1144.810791015625	1494.529907226562	260.69873046875	1311.673706054688	1589.206176757812	320.6676635742188	1191.245361328125	1576.707153320312	361.4416809082031	1292.491943359375	1503.360473632812	196.9754638671875	1066.488891601562	852.53076171875	349.6504821777344	1156.288452148438	904.0110473632812	425.861572265625	1391.985717773438	921.0885009765625	367.9017944335938	1423.71337890625	472.3578796386719	363.28564453125	1440.337768554688	626.9161376953125	335.3272094726562	1439.545776367188	33.58292007446289	277.0220336914062	1436.463500976562	319.7996826171875	344.9786987304688	1388.096435546875	25.26610946655273	479.1312561035156	1352.65673828125	32.35908508300781	401.642822265625	1455.515502929688	26.42926597595215	386.2859191894531	1376.674560546875	28.19382858276367	232.9172821044922	1134.927490234375	477.8489990234375	426.2821044921875	1086.68994140625	728.64404296875	394.9091491699219	1014.90869140625	156.8654022216797	165.7304229736328	1112.06982421875	356.8006896972656	378.2254943847656	1102.125732421875	39.39064788818359	300.0399169921875	1122.758178710938	74.59353637695312	238.0521240234375	1025.833740234375	83.64106750488281	249.5216827392578	1046.894897460938	183.418701171875	109.1084136962891	1439.196533203125	883.0497436523438	263.5862426757812	nan	nan	nan	
